<?xml version="1.0" standalone="no"?><!DOCTYPE svg PUBLIC "-//W3C//DTD SVG 1.1//EN" "http://www.w3.org/Graphics/SVG/1.1/DTD/svg11.dtd"><svg xmlns:xlink="http://www.w3.org/1999/xlink" xmlns="http://www.w3.org/2000/svg" version="1.1" width="200" height="200" viewBox="0 0 200 200"><defs><style type="text/css"><![CDATA[
@font-face {
  font-family: "ifont";
  src: url("//at.alicdn.com/t/font_1442373896_4754455.eot?#iefix") format("embedded-opentype"), url("//at.alicdn.com/t/font_1442373896_4754455.woff") format("woff"), url("//at.alicdn.com/t/font_1442373896_4754455.ttf") format("truetype"), url("//at.alicdn.com/t/font_1442373896_4754455.svg#ifont") format("svg");
}

]]></style></defs><g class="transform-group"><g transform="scale(0.1953125, 0.1953125)"><path d="M800 960 224 960c-52.928 0-96-43.072-96-96L128 224c0-52.928 43.072-96 96-96l448 0c17.696 0 32 14.336 32 32s-14.304 32-32 32L224 192C206.368 192 192 206.368 192 224l0 640c0 17.664 14.368 32 32 32l576 0c17.664 0 32-14.336 32-32L832 352c0-17.664 14.304-32 32-32s32 14.336 32 32l0 512C896 916.928 852.928 960 800 960zM511.68 542.72c-8.256 0-16.512-3.168-22.752-9.504-12.416-12.576-12.32-32.832 0.256-45.248L907.488 74.24c12.608-12.448 32.832-12.288 45.248 0.256 12.448 12.576 12.32 32.832-0.256 45.248L534.176 533.472C527.936 539.648 519.808 542.72 511.68 542.72z" fill="#272636"></path></g></g></svg>