<?xml version="1.0" standalone="no"?><!DOCTYPE svg PUBLIC "-//W3C//DTD SVG 1.1//EN" "http://www.w3.org/Graphics/SVG/1.1/DTD/svg11.dtd"><svg xmlns:xlink="http://www.w3.org/1999/xlink" xmlns="http://www.w3.org/2000/svg" version="1.1" width="200" height="200" viewBox="0 0 200 200"><defs><style type="text/css"><![CDATA[
@font-face {
  font-family: "ifont";
  src: url("//at.alicdn.com/t/font_1442373896_4754455.eot?#iefix") format("embedded-opentype"), url("//at.alicdn.com/t/font_1442373896_4754455.woff") format("woff"), url("//at.alicdn.com/t/font_1442373896_4754455.ttf") format("truetype"), url("//at.alicdn.com/t/font_1442373896_4754455.svg#ifont") format("svg");
}

]]></style></defs><g class="transform-group"><g transform="scale(0.1953125, 0.1953125)"><path d="M190.591634 960.526793c-17.717453 0-31.994625-14.277171-31.994625-31.994625 0-69.493701 82.050731-119.721821 226.370569-139.847472l0-9.63279c-97.876029-74.998152-97.876029-213.985554-97.876029-298.616496 0-139.675458 82.222745-223.102301 219.834033-223.102301l7.396607 0c137.611288 0 219.834033 83.426844 219.834033 223.102301 0 10.320847-0.172014 20.641693-0.344028 31.306568-0.516042 17.717453-14.965228 31.650596-32.854695 31.134554-17.717453-0.516042-31.650596-15.137242-31.134554-32.854695 0.344028-9.976818 0.344028-19.781623 0.344028-29.586427 0-105.616664-52.464304-159.113052-155.844784-159.113052l-7.396607 0c-103.38048 0-155.844784 53.496388-155.844784 159.113052 0 102.176382 6.364522 206.244919 83.082815 255.096926 9.288762 5.84848 14.793214 15.997312 14.793214 27.006215L448.956828 817.067025c0 16.341341-12.385016 30.102469-28.554342 31.82261-128.494541 13.589115-197.816227 51.260205-197.816227 79.642533C222.586259 946.077608 208.137074 960.526793 190.591634 960.526793zM833.752394 960.526793c-17.717453 0-31.994625-14.277171-31.994625-31.994625 0-28.554342-69.321687-66.053418-197.816227-79.642533-16.341341-1.720141-28.726356-15.48127-28.726356-31.82261l0-54.700487c0-17.717453 14.277171-31.994625 31.994625-31.994625s31.994625 14.277171 31.994625 31.994625l0 26.318159c144.319839 19.953637 226.370569 70.353771 226.370569 139.847472C865.747018 946.077608 851.469847 960.526793 833.752394 960.526793zM612.198219 673.435243c-44.035612 0-76.890307-4.472367-77.750378-4.644381-15.825298-4.816395-25.286074-20.813707-21.845792-37.155048 3.268268-16.169326 18.40551-26.834201 34.918864-25.286074 79.814547 8.77272 201.600538 1.204099 222.930287-43.175542 7.568621-15.825298 26.662187-22.705863 42.659499-14.965228 15.997312 7.568621 22.705863 26.834201 14.965228 42.659499C794.705191 660.36217 687.368386 673.435243 612.198219 673.435243zM896.021502 639.892491c-17.717453 0-31.994625-14.277171-31.994625-31.994625l0-111.809172-42.831514-15.309256c-12.729044-4.472367-21.32975-16.685369-21.32975-30.102469 0-160.489165-129.182597-291.219889-287.951621-291.219889-158.769024 0-287.951621 130.730724-287.951621 291.219889 0 10.320847-4.988409 19.953637-13.417101 25.974131l-18.577524 13.245087 0 118.00168c0 17.717453-14.277171 31.994625-31.994625 31.994625s-31.994625-14.277171-31.994625-31.994625l0-134.34302c0-10.320847 4.988409-19.953637 13.417101-25.974131l18.921552-13.589115C169.089871 245.980178 323.386528 95.639845 511.913993 95.639845c186.463296 0 339.555854 147.072065 351.252814 332.331262l43.51957 15.48127c12.729044 4.472367 21.32975 16.685369 21.32975 30.102469l0 134.34302C928.016126 625.61532 913.738955 639.892491 896.021502 639.892491z" fill="#272636"></path></g></g></svg>