<?xml version="1.0" standalone="no"?><!DOCTYPE svg PUBLIC "-//W3C//DTD SVG 1.1//EN" "http://www.w3.org/Graphics/SVG/1.1/DTD/svg11.dtd"><svg xmlns:xlink="http://www.w3.org/1999/xlink" xmlns="http://www.w3.org/2000/svg" version="1.1" width="200" height="200" viewBox="0 0 200 200"><defs><style type="text/css"><![CDATA[
@font-face {
  font-family: "ifont";
  src: url("//at.alicdn.com/t/font_1442373896_4754455.eot?#iefix") format("embedded-opentype"), url("//at.alicdn.com/t/font_1442373896_4754455.woff") format("woff"), url("//at.alicdn.com/t/font_1442373896_4754455.ttf") format("truetype"), url("//at.alicdn.com/t/font_1442373896_4754455.svg#ifont") format("svg");
}

]]></style></defs><g class="transform-group"><g transform="scale(0.1953125, 0.1953125)"><path d="M985.984882 590.008399c-10.320847-14.277171-30.274483-17.545439-44.723669-7.224593l-56.936671 40.939358c9.804804-35.950949 14.965228-73.105997 14.965228-110.777087 0-229.982866-187.151352-416.962204-416.962204-416.962204C252.3447 95.983874 65.365362 282.963212 65.365362 512.946078s187.151352 416.962204 416.962204 416.962204c72.761969 0 143.975811-19.093566 206.760961-55.044515 3.440282-0.688056 6.70855-1.720141 9.804804-3.612296 17.889467-10.664875 35.090879-22.705863 51.088191-35.950949 13.589115-11.180917 15.653284-31.306568 4.300353-45.067697-11.180917-13.589115-31.306568-15.653284-45.067697-4.300353-12.55703 10.320847-26.146145 19.609609-40.079288 28.210314-2.064169 0.688056-4.300353 1.032085-6.364522 2.236183-54.356459 32.510667-116.797581 49.540064-180.614816 49.540064-194.719973 0-352.972955-158.424996-352.972955-352.972955S287.607593 159.973123 482.327566 159.973123 835.300521 318.226104 835.300521 512.946078c0 44.207626-8.256677 87.555182-24.081975 128.150512l-45.239711-108.712918c-6.880564-16.341341-25.630102-23.909961-41.799429-17.201411-16.341341 6.70855-24.081975 25.458088-17.201411 41.799429l72.073912 172.874181c0.688056 1.892155 1.892155 3.268268 2.92424 4.988409 0.344028 0.516042 0.344028 1.032085 0.688056 1.376113 0.172014 0.172014 0.344028 0.172014 0.344028 0.344028 2.752226 3.612296 6.192508 6.536536 10.148833 8.77272 0.688056 0.344028 1.376113 0.688056 2.064169 1.032085 3.268268 1.548127 6.880564 2.752226 10.664875 3.096254 0.688056 0 1.204099-0.172014 1.892155 0 0.344028 0 0.516042 0.172014 0.860071 0.172014 0.688056 0 1.376113-0.172014 2.064169-0.344028 2.408198-0.172014 4.816395-0.516042 7.052579-1.032085 0.516042-0.172014 1.032085-0.344028 1.376113-0.516042 2.580212-0.860071 4.988409-2.064169 7.224593-3.612296 0.344028-0.172014 0.688056-0.344028 1.032085-0.516042l151.372417-108.884932C993.03746 624.239207 996.305728 604.28557 985.984882 590.008399zM606.693768 374.474719c12.729044-12.213002 13.073072-32.510667 0.688056-45.239711-12.213002-12.729044-32.510667-13.073072-45.239711-0.688056l-79.814547 77.062322L402.685033 328.546951c-12.729044-12.213002-33.026709-12.040988-45.239711 0.688056-12.213002 12.729044-12.040988 33.026709 0.688056 45.239711l89.791366 86.695112L447.924744 479.919368l-63.989249 0c-17.717453 0-31.994625 14.277171-31.994625 31.994625s14.277171 31.994625 31.994625 31.994625l63.989249 0 0 31.994625-63.989249 0c-17.717453 0-31.994625 14.277171-31.994625 31.994625s14.277171 31.994625 31.994625 31.994625l63.989249 0 0 67.257517c0 17.717453 14.277171 31.994625 31.994625 31.994625s31.994625-14.277171 31.994625-31.994625L511.913993 639.892491l63.989249 0c17.717453 0 31.994625-14.277171 31.994625-31.994625s-14.277171-31.994625-31.994625-31.994625l-63.989249 0 0-31.994625 63.989249 0c17.717453 0 31.994625-14.277171 31.994625-31.994625s-14.277171-31.994625-31.994625-31.994625l-63.989249 0L511.913993 466.15824 606.693768 374.474719z" fill="#272636"></path></g></g></svg>